<svg id="Шар_1" data-name="Шар 1" xmlns="http://www.w3.org/2000/svg" xmlns:xlink="http://www.w3.org/1999/xlink" viewBox="0 0 202.16 127.91"><defs><style>.cls-1{fill:#fff;}.cls-2{fill:url(#Градієнт_без_назви_54);}</style><linearGradient id="Градієнт_без_назви_54" x1="41.01" y1="3.71" x2="161.31" y2="124.02" gradientUnits="userSpaceOnUse"><stop offset="0" stop-color="#21d4fd"/><stop offset="0.05" stop-color="#2ec5fd"/><stop offset="0.22" stop-color="#5793fe"/><stop offset="0.39" stop-color="#7a6afe"/><stop offset="0.56" stop-color="#944aff"/><stop offset="0.72" stop-color="#a833ff"/><stop offset="0.86" stop-color="#b326ff"/><stop offset="1" stop-color="#b721ff"/></linearGradient></defs><path class="cls-1" d="M172,63.55q0-16.8-11.79-26.91T129.07,26.52H73.29q-19.52,0-31.24,10.12T30.33,63.55q0,16.67,11.72,26.84t31.24,10.18h55.78q19.4,0,31.17-10.18T172,63.55Zm30.13.41q0,19.27-9.06,33.67A60.35,60.35,0,0,1,167.56,120q-16.49,7.95-38.42,7.94H73Q51,127.91,34.53,120A60.45,60.45,0,0,1,9.06,97.63Q0,83.23,0,64T9.06,30.29A60.38,60.38,0,0,1,34.53,8Q51,0,73,0h56.12q21.95,0,38.42,8A60.28,60.28,0,0,1,193.1,30.29Q202.16,44.68,202.16,64Z"/><path class="cls-2" d="M196.59,63.86q0,18.08-8.55,31.56a56.78,56.78,0,0,1-24.11,20.93q-15.57,7.45-36.27,7.45h-53q-20.83,0-36.34-7.45a56.91,56.91,0,0,1-24-20.93Q5.73,81.92,5.73,63.86t8.55-31.55a56.91,56.91,0,0,1,24-20.93Q53.84,3.93,74.67,3.93h53q20.7,0,36.27,7.45A56.78,56.78,0,0,1,188,32.31Q196.59,45.81,196.59,63.86Zm-19.39-.24q0-18.65-12.67-29.88T131,22.51h-60q-21,0-33.57,11.23T24.89,63.62q0,18.52,12.6,29.82t33.57,11.3h60q20.83,0,33.5-11.3T177.2,63.62Z"/><path class="cls-1" d="M76.44,66.81l9.33-21.18a2.64,2.64,0,0,1,2.45-1.36H93c1.81,0,3.06,1.41,2.43,2.73L78.38,82.34A2.68,2.68,0,0,1,76,83.65H72a2.68,2.68,0,0,1-2.43-1.31L52.55,47c-.64-1.32.61-2.73,2.43-2.73h4.78a2.63,2.63,0,0,1,2.45,1.36l9.33,21.18C72.34,68.63,75.64,68.63,76.44,66.81Z"/><path class="cls-1" d="M132.43,66.81l9.33-21.18a2.64,2.64,0,0,1,2.45-1.36H149c1.81,0,3.06,1.41,2.43,2.73L134.37,82.34a2.68,2.68,0,0,1-2.43,1.31H128a2.68,2.68,0,0,1-2.43-1.31L108.54,47c-.64-1.32.61-2.73,2.43-2.73h4.78a2.63,2.63,0,0,1,2.45,1.36l9.33,21.18C128.33,68.63,131.63,68.63,132.43,66.81Z"/></svg>