<svg id="Слой_1" data-name="Слой 1" xmlns="http://www.w3.org/2000/svg" xmlns:xlink="http://www.w3.org/1999/xlink" viewBox="0 0 284.78 459"><defs><style>.cls-1{fill:#fff;}.cls-2{fill:#78b400;}.cls-3{fill:url(#Безымянный_градиент_8);}.cls-4{fill:url(#Безымянный_градиент_8-2);}.cls-5{fill:url(#Безымянный_градиент_8-3);}</style><linearGradient id="Безымянный_градиент_8" x1="78.09" y1="197.19" x2="145.29" y2="197.19" gradientUnits="userSpaceOnUse"><stop offset="0" stop-color="#256625"/><stop offset="0.26" stop-color="#1c5a23"/><stop offset="0.66" stop-color="#093f1d"/></linearGradient><linearGradient id="Безымянный_градиент_8-2" x1="140.34" y1="262.23" x2="195.23" y2="262.23" xlink:href="#Безымянный_градиент_8"/><linearGradient id="Безымянный_градиент_8-3" x1="0" y1="229.5" x2="284.78" y2="229.5" xlink:href="#Безымянный_градиент_8"/></defs><path class="cls-1" d="M143.63,350c9.12.3,19.75.53,41,1,6.59.14,12.88.2,17-4,5.42-5.52,3.62-14.86,3-21-1.35-13.33,3.1-25.89,12-51,9.19-25.94,16.83-22.77,36-59,8.41-15.91,15.68-29.89,20-50,2.38-11.12,6.13-29.42,2-52-6.08-33.26-25.36-54.6-35-65s-26.16-27.8-54-37c-30.76-10.17-57.06-4.3-71-1-11.93,2.82-42.54,10.5-69,38a134.67,134.67,0,0,0-32,56,139.6,139.6,0,0,0-3,61c4.28,24.88,14.3,42.39,24,59,23,39.32,36.3,37.82,39,60,2.11,17.37-4.72,29.41,4,49,3,6.64,5.64,12.68,12,17C102.48,359.73,111.94,349,143.63,350Z"/><path class="cls-2" d="M76.62,75.57C47.49,111,23.35,227.48,128.23,236.63c-12.49-27.88.42-52.44-7.49-89.48S76.62,75.57,76.62,75.57Z"/><path class="cls-2" d="M168.18,75.57c10.75,15,17.48,65.76-22.89,86.15C132.39,144.24,134.89,95.13,168.18,75.57Z"/><path class="cls-2" d="M221.87,138.83C191.07,141.33,143,176.7,143,257,218.12,240.38,221.87,138.83,221.87,138.83Z"/><path class="cls-3" d="M78.29,106s0,3.08,0,8.46c.19,2.69.39,5.94.75,9.66.55,3.71,1,7.91,2,12.41.81,4.53,2.11,9.35,3.51,14.42s3.26,10.32,5.26,15.71q1.61,4,3.27,8.11l3.67,8.18c2.61,5.44,5.39,10.89,8.37,16.24a282.35,282.35,0,0,0,19.52,30.14A114,114,0,0,1,134,243.36a96.14,96.14,0,0,1,6.18,13.93A94.65,94.65,0,0,1,145,279.6c.25,2.76.31,4.94.31,6.45s-.06,2.39-.06,2.39l-5-.4s.07-.64.09-2,0-3.43-.18-6A90.63,90.63,0,0,0,136,258.71a93.22,93.22,0,0,0-5.65-13.38c-1.21-2.3-2.49-4.5-4-6.83l-4.78-7a284,284,0,0,1-18.88-31.05c-2.85-5.49-5.5-11.08-8-16.64q-1.75-4.22-3.46-8.35c-1-2.79-2.07-5.55-3.07-8.27-1.86-5.49-3.52-10.83-4.85-16s-2.42-10-3.11-14.61c-.89-4.55-1.2-8.79-1.65-12.52-.25-3.74-.36-7-.48-9.71C78.22,109,78.29,106,78.29,106Z"/><path class="cls-4" d="M195.23,177.54s-1.76,2.29-5.13,6.09l-6,6.87c-2.3,2.67-4.92,5.66-7.62,9s-5.56,7.08-8.31,11.17a137.17,137.17,0,0,0-8.09,13.17,123.79,123.79,0,0,0-6.84,15,117.09,117.09,0,0,0-4.85,16.22,131.77,131.77,0,0,0-2.52,16.73c-.18,5.58-.41,11-.26,16.52,0,10.85,0,21,.07,29.66-.1,17.37-.16,28.94-.16,28.94h-5s-.06-11.57-.16-28.94c0-8.68,0-18.81.07-29.66,0-5.38.3-11.13.61-16.93a138.09,138.09,0,0,1,3-17.34,104.94,104.94,0,0,1,5.48-16.7,81.7,81.7,0,0,1,3.59-7.82c1.19-2.57,2.62-5,4-7.35a119.57,119.57,0,0,1,8.82-13.13c3-4,6.11-7.61,9-10.84,5.83-6.5,11.15-11.44,14.75-15S195.23,177.54,195.23,177.54Z"/><path class="cls-5" d="M284.37,128.38c-2.43-32.17-17.22-63.08-41.63-87C218.59,17.67,187.61,3.18,155.48.55c-4.5-.36-9-.55-13.37-.55C102.66,0,68.3,15.13,40,45,13.53,72.83-.29,106.27,0,141.67c.28,33.26,17.74,67,30.84,89.53C35.41,239.05,40.57,247.26,46,256c2.54,4.05,5.11,8.14,7.65,12.23,8,12.93,15.31,25.7,16.9,39.9a82.07,82.07,0,0,1-.24,13.73c-.44,6.29-.9,12.8.3,18.1s4.45,8.71,7.58,11.88a53.67,53.67,0,0,1,3.78,4.1c-2.4,6.26-1.6,14.09,1.93,19.33-4,7.09-4.59,17.45,0,24-3.89,7-4.2,14.81-.76,21.31,3.94,7.43,12.15,11.86,22,11.86h0a37.07,37.07,0,0,0,4.76-.32c0,1,0,2.1,0,3.13,0,6.16,0,13.14,6.35,18.35S136.45,459,140.57,459c14,0,30.25-3.51,34-13.37,1.7-4.5,1.24-7.78.76-11.25-.1-.69-.19-1.39-.28-2.13a34.27,34.27,0,0,0,4.81.35c10.18,0,18.83-4.94,22.58-12.89,2.94-6.24,2.26-13.37-1.76-19.52,2.75-4,3.85-10.18,3.47-15.21a16.73,16.73,0,0,0-3.19-9.27c3-4.8,4.41-12.64,2.36-18.9a40.92,40.92,0,0,1,5-6.64c2.65-3,5.4-6.13,6.52-11.39,1.49-7,.92-13.26.37-19.3A61.91,61.91,0,0,1,214.9,307c1.66-14.93,9.81-29.29,15.8-38.78,3-4.82,6-9.43,8.92-13.88,11.35-17.5,22.08-34,31.5-57.18C278.77,178.32,286.69,158.86,284.37,128.38Zm-125.79,311c-2.92,1.45-8.63,2.36-15.22,2.36-6.22,0-12.49-.8-16.19-2a15.92,15.92,0,0,1,.07-7c2.69-1.37,6.92-1.53,10-1.53,2.38,0,5,.12,7.46.23s5.22.25,7.75.25c1.69,0,3.19-.06,4.56-.17C158.29,432.24,158.79,434.67,158.58,439.37Zm28.73-26.54c-5.69,2.49-14.08,2.83-20.9,2.83-3.81,0-7.78-.11-12-.23-4.35-.13-8.84-.26-13.33-.26-2.45,0-5.59.16-9.23.34-4.58.22-9.77.48-14.79.48-18.16,0-19.35-3.6-19.41-4.32a2.07,2.07,0,0,1,.55-1.72c1.29-1.39,5.17-3,16.41-3,4,0,8,.19,12,.37,3.32.15,6.45.3,9.06.3h25c2.77,0,5.59-.1,8.31-.19s5-.17,7.35-.17c6.33,0,10,.73,11,2.16C187.79,410,187.77,411.23,187.31,412.83Zm.08-23.12c-6.67,1.69-14.75,1.93-21.88,1.93-3.83,0-7.78-.08-12-.17-4.38-.08-8.91-.18-13.52-.18-2.36,0-5.42.17-9,.36-4.52.25-9.63.52-14.59.52-13.13,0-17-2.1-18.22-3.35a2,2,0,0,1-.56-1.65c.08-1.23,1.94-4.11,17.37-4.11,4,0,8.15.18,12.15.35,3.48.14,6.77.28,9.56.28h23.88c2.86,0,5.69-.09,8.44-.18,2.54-.08,4.94-.15,7.18-.15s9.52,0,11.09,2.23C187.9,386.37,187.91,387.8,187.39,389.71Zm.44-24.48c-1.46,1.77-4.12,2.51-8.86,2.51-1.6,0-3.27-.08-5-.16s-3.77-.17-5.7-.17H141.11c-2.49,0-5.68.18-9.39.37-4.64.26-9.91.54-15,.54-12.67,0-17-1.84-18.5-3.39a2,2,0,0,1-.55-1.64c.19-2.75,6.06-4.34,16.11-4.34,4.31,0,8.88.27,12.92.5,3.34.19,6.49.37,9,.37,5.5,0,10.71-.05,15.6-.1,4.34,0,8.43-.07,12.27-.07,8.13,0,16.56.14,23.24,1.14C187.74,361.45,187.88,363.57,187.83,365.23Zm80.29-216.29c-1.77,18.93-10.64,43.26-25.66,70.36-4.5,8.12-9.93,16.12-15.19,23.86-13.49,19.85-27.45,40.37-29.71,67.54a114.81,114.81,0,0,0-.1,12.19c.21,7.76.44,16.56-3,19.14-1.52,1.14-6,2.51-18.9,2.51-6,0-12.52-.28-18.78-.55-5.41-.23-10.51-.46-14.63-.46-3,0-6.84.15-11.33.32-5.65.22-12.06.47-18.21.47-17.48,0-21.5-2.16-22.41-3.08-1.89-1.9-2.3-11.66-2.6-18.79-.18-4.36-.37-8.87-.82-12.92C84,283.9,76,272,66.76,258.3c-2.09-3.1-4.25-6.32-6.47-9.84-6.16-9.82-11.91-20.31-17.26-30.21-10.33-19.11-23.19-42.89-25.67-67.17C11.66,95.52,46.67,59.39,57.54,49.64c22.33-20,53.79-32,84.15-32,2.63,0,5.28.09,7.88.26,32.72,2.22,61.28,14.65,82.58,36C241.77,63.48,272.79,98.76,268.12,148.94Z"/></svg>