<svg id="Слой_1" data-name="Слой 1" xmlns="http://www.w3.org/2000/svg" xmlns:xlink="http://www.w3.org/1999/xlink" viewBox="0 0 277.59 447.4"><defs><style>.cls-1{fill:#fcee21;}.cls-2{fill:#78b400;}.cls-3{fill:url(#Безымянный_градиент_8);}.cls-4{fill:url(#Безымянный_градиент_8-2);}.cls-5{fill:url(#Безымянный_градиент_8-3);}</style><linearGradient id="Безымянный_градиент_8" x1="76.12" y1="192.21" x2="141.62" y2="192.21" gradientUnits="userSpaceOnUse"><stop offset="0" stop-color="#256625"/><stop offset="0.26" stop-color="#1c5a23"/><stop offset="0.66" stop-color="#093f1d"/></linearGradient><linearGradient id="Безымянный_градиент_8-2" x1="136.8" y1="255.6" x2="190.3" y2="255.6" xlink:href="#Безымянный_градиент_8"/><linearGradient id="Безымянный_градиент_8-3" x1="0" y1="223.7" x2="277.59" y2="223.7" xlink:href="#Безымянный_градиент_8"/></defs><polygon class="cls-1" points="197.35 335.3 204.32 281.15 232.19 230.65 261.81 176.51 269.36 115.65 246 66 211.1 26.68 163.55 11.58 123.61 11.58 95.21 17.19 70 29 44.06 61.01 27.17 73.66 16.31 99.96 9 132 10 156 18 182 32 213 55.26 250.53 74 288 78 308 76.12 323.87 78.49 335.3 86 340 185 342 197.35 335.3"/><path class="cls-2" d="M74.68,73.66c-28.39,34.48-51.92,148.07,50.31,157-12.17-27.18.4-51.11-7.3-87.22S74.68,73.66,74.68,73.66Z"/><path class="cls-2" d="M163.93,73.66c10.48,14.66,17,64.1-22.31,84C129,140.6,131.48,92.73,163.93,73.66Z"/><path class="cls-2" d="M216.26,135.32c-30,2.44-76.87,36.92-76.87,115.21C212.61,234.3,216.26,135.32,216.26,135.32Z"/><path class="cls-3" d="M76.31,103.27s0,3,0,8.25c.18,2.62.38,5.79.73,9.42.53,3.61,1,7.7,1.94,12.09.79,4.41,2,9.11,3.42,14.06s3.18,10.06,5.12,15.31l3.2,7.91,3.57,8c2.55,5.3,5.26,10.61,8.17,15.83a273.67,273.67,0,0,0,19,29.38,110.39,110.39,0,0,1,9.09,13.72,90.09,90.09,0,0,1,10.7,35.32c.24,2.69.3,4.82.3,6.29s-.06,2.33-.06,2.33l-4.85-.39s.06-.62.08-2,0-3.34-.18-5.88a87.35,87.35,0,0,0-4.07-20.73,88.75,88.75,0,0,0-5.51-13c-1.18-2.24-2.42-4.39-3.87-6.66s-3.08-4.49-4.67-6.79a278.13,278.13,0,0,1-18.39-30.27c-2.79-5.35-5.37-10.8-7.78-16.21l-3.38-8.14L86,163c-1.81-5.34-3.43-10.55-4.72-15.56s-2.37-9.79-3-14.25c-.86-4.43-1.17-8.56-1.6-12.19-.25-3.66-.36-6.85-.47-9.47C76.24,106.27,76.31,103.27,76.31,103.27Z"/><path class="cls-4" d="M190.3,173.05s-1.72,2.23-5,5.94l-5.88,6.7c-2.23,2.6-4.78,5.51-7.42,8.8s-5.42,6.89-8.1,10.88A135,135,0,0,0,156,218.22c-1.23,2.3-2.51,4.62-3.54,7.1a77.57,77.57,0,0,0-3.12,7.49,114.34,114.34,0,0,0-4.73,15.81,128.73,128.73,0,0,0-2.45,16.31c-.18,5.44-.41,10.76-.26,16.1,0,10.58.05,20.45.07,28.91-.1,16.93-.16,28.21-.16,28.21H137l-.15-28.21c0-8.46,0-18.33.07-28.91-.05-5.25.29-10.84.59-16.49a131.34,131.34,0,0,1,2.89-16.91,101,101,0,0,1,5.33-16.28,81.14,81.14,0,0,1,3.5-7.62c1.16-2.51,2.56-4.85,3.91-7.17a113.93,113.93,0,0,1,8.59-12.79c2.95-3.91,5.95-7.42,8.81-10.57,5.68-6.34,10.87-11.15,14.37-14.62S190.3,173.05,190.3,173.05Z"/><path class="cls-5" d="M277.19,125.13c-2.38-31.36-16.79-61.48-40.59-84.82C213.07,17.22,182.87,3.1,151.56.54c-4.4-.36-8.78-.54-13-.54C100.07,0,66.58,14.75,39,43.84,13.19,71-.28,103.59,0,138.09c.28,32.42,17.29,65.34,30.06,87.27C34.51,233,39.54,241,44.87,249.48c2.47,4,5,7.94,7.45,11.93,7.8,12.59,14.93,25,16.47,38.88a79,79,0,0,1-.23,13.39c-.43,6.13-.87,12.47.29,17.64s4.35,8.49,7.4,11.58c1.23,1.25,2.5,2.54,3.68,4-2.34,6.1-1.56,13.73,1.88,18.84-3.85,6.91-4.48,17,0,23.36-3.79,6.82-4.1,14.44-.74,20.77,3.84,7.24,11.84,11.57,21.41,11.57h0a35.41,35.41,0,0,0,4.65-.32c0,1,0,2,0,3.05,0,6,0,12.81,6.19,17.88S133,447.4,137,447.4c13.62,0,29.48-3.42,33.12-13,1.66-4.39,1.21-7.58.74-11-.1-.68-.19-1.37-.28-2.08a32.68,32.68,0,0,0,4.69.34c9.93,0,18.36-4.81,22-12.57,2.87-6.08,2.2-13-1.71-19,2.68-3.85,3.76-9.91,3.38-14.81a16.2,16.2,0,0,0-3.11-9c2.89-4.69,4.3-12.32,2.3-18.43a40.16,40.16,0,0,1,4.91-6.47c2.58-2.93,5.26-6,6.35-11.1,1.45-6.83.9-12.93.36-18.82a60.19,60.19,0,0,1-.31-12.17c1.61-14.55,9.56-28.54,15.4-37.8,3-4.7,5.87-9.19,8.69-13.53,11.07-17.05,21.53-33.16,30.71-55.74C271.73,173.82,279.44,154.85,277.19,125.13ZM154.57,428.26c-2.85,1.42-8.41,2.31-14.83,2.31-6.07,0-12.18-.78-15.78-2a15.41,15.41,0,0,1,.07-6.8c2.62-1.34,6.74-1.5,9.7-1.5,2.32,0,4.83.12,7.26.23s5.09.24,7.56.24c1.65,0,3.11-.06,4.44-.17C154.29,421.32,154.78,423.69,154.57,428.26Zm28-25.86c-5.54,2.43-13.72,2.76-20.36,2.76-3.72,0-7.58-.12-11.67-.23s-8.62-.25-13-.25c-2.38,0-5.45.15-9,.33-4.46.22-9.51.47-14.4.47-17.71,0-18.87-3.51-18.92-4.21a2,2,0,0,1,.53-1.68c1.25-1.35,5-3,16-3,3.88,0,7.84.19,11.68.36,3.23.15,6.29.29,8.83.29h24.34c2.7,0,5.45-.09,8.1-.18s4.92-.16,7.17-.16c6.16,0,9.78.71,10.74,2.1C183,399.67,183,400.84,182.57,402.4Zm.08-22.54c-6.5,1.65-14.37,1.88-21.32,1.88-3.74,0-7.59-.08-11.67-.16-4.27-.09-8.68-.18-13.17-.18-2.3,0-5.29.17-8.74.35-4.4.24-9.39.51-14.22.51-12.8,0-16.63-2.05-17.77-3.27a1.92,1.92,0,0,1-.54-1.6c.08-1.21,1.89-4,16.93-4,3.91,0,7.95.17,11.85.34,3.39.14,6.59.28,9.31.28h23.28c2.79,0,5.55-.09,8.22-.18,2.48-.08,4.82-.15,7-.15s9.28,0,10.8,2.18C183.15,376.6,183.16,378,182.65,379.86Zm.44-23.86c-1.43,1.73-4,2.45-8.65,2.45-1.55,0-3.18-.08-4.9-.15s-3.68-.17-5.55-.17H137.54c-2.42,0-5.54.17-9.15.36-4.52.24-9.65.52-14.6.52-12.35,0-16.62-1.79-18-3.3a1.92,1.92,0,0,1-.54-1.6c.18-2.69,5.91-4.23,15.71-4.23,4.19,0,8.65.26,12.59.48,3.25.19,6.32.36,8.73.36,5.37,0,10.44,0,15.21-.09,4.22,0,8.21-.07,12-.07,7.93,0,16.14.14,22.65,1.11C183,352.31,183.13,354.38,183.09,356Zm78.25-210.82c-1.72,18.45-10.37,42.17-25,68.58-4.38,7.92-9.68,15.71-14.81,23.25-13.15,19.35-26.75,39.36-29,65.84a109.06,109.06,0,0,0-.1,11.88c.2,7.56.43,16.14-2.89,18.65-1.47,1.12-5.87,2.46-18.42,2.46-5.88,0-12.2-.28-18.31-.54-5.26-.23-10.24-.45-14.25-.45-2.89,0-6.67.15-11,.31-5.52.21-11.77.45-17.76.45-17,0-21-2.09-21.84-3-1.84-1.85-2.24-11.37-2.53-18.31-.18-4.26-.37-8.66-.81-12.6-2.77-25-10.54-36.55-19.55-49.93-2-3-4.14-6.16-6.3-9.6-6-9.57-11.61-19.8-16.83-29.45-10.07-18.62-22.6-41.8-25-65.46C11.37,93.1,45.49,57.89,56.08,48.39c21.77-19.54,52.43-31.2,82-31.2,2.56,0,5.15.09,7.68.26,31.89,2.16,59.73,14.28,80.5,35.05C235.66,61.88,265.9,96.27,261.34,145.18Z"/></svg>