<svg id="Слой_1" data-name="Слой 1" xmlns="http://www.w3.org/2000/svg" xmlns:xlink="http://www.w3.org/1999/xlink" viewBox="0 0 364 217.13"><defs><style>.cls-1{fill:#fff;}.cls-2{fill:#78b400;}.cls-3{fill:url(#Безымянный_градиент_8);}.cls-4{fill:url(#Безымянный_градиент_8-2);}</style><linearGradient id="Безымянный_градиент_8" x1="36.94" y1="93.28" x2="68.73" y2="93.28" gradientUnits="userSpaceOnUse"><stop offset="0" stop-color="#256625"/><stop offset="0.26" stop-color="#1c5a23"/><stop offset="0.66" stop-color="#093f1d"/></linearGradient><linearGradient id="Безымянный_градиент_8-2" x1="66.39" y1="124.05" x2="92.36" y2="124.05" xlink:href="#Безымянный_градиент_8"/></defs><path class="cls-1" d="M175.24,76.37A15.63,15.63,0,0,0,178.9,76a6.7,6.7,0,0,0,2.31-1,3.21,3.21,0,0,0,1.21-1.43,5,5,0,0,0,.34-1.85,4.24,4.24,0,0,0-2.15-3.61,32.07,32.07,0,0,0-7.39-3.09q-2.28-.77-4.56-1.76a16.72,16.72,0,0,1-4.1-2.48,12,12,0,0,1-2.95-3.64,11,11,0,0,1-1.14-5.2,12.29,12.29,0,0,1,1.21-5.52,11.78,11.78,0,0,1,3.42-4.18,16,16,0,0,1,5.37-2.65,25.55,25.55,0,0,1,7.12-.92,29.47,29.47,0,0,1,13.76,3.06l-3,7.85A29.38,29.38,0,0,0,184,48a19.66,19.66,0,0,0-5.74-.74,11,11,0,0,0-5.41,1,3.3,3.3,0,0,0-1.64,3,3.38,3.38,0,0,0,.6,2,5.77,5.77,0,0,0,1.71,1.5A14.88,14.88,0,0,0,176.08,56c1,.36,2,.73,3.19,1.11,2.41.85,4.52,1.69,6.31,2.52A16.71,16.71,0,0,1,190,62.53a10.34,10.34,0,0,1,2.65,3.89,14.72,14.72,0,0,1,.88,5.42,11.29,11.29,0,0,1-4.57,9.6q-4.56,3.42-13.76,3.42a40.61,40.61,0,0,1-5.57-.35,38.63,38.63,0,0,1-4.4-.86A27.52,27.52,0,0,1,162,82.56a25.19,25.19,0,0,1-2.32-1.08l3-7.91a26.74,26.74,0,0,0,5.13,1.94A28.15,28.15,0,0,0,175.24,76.37Z"/><path class="cls-1" d="M220.35,66.16q0-4.59-1.24-6.5t-4.26-1.92a18.73,18.73,0,0,0-1.95.1c-.67.06-1.32.14-1.94.22V84H201V51.55c.85-.21,1.85-.43,3-.67s2.35-.45,3.63-.64,2.58-.34,3.92-.44,2.67-.16,4-.16a17.57,17.57,0,0,1,6.21.92,14.29,14.29,0,0,1,3.93,2.2,19.5,19.5,0,0,1,10.07-3.12,18.56,18.56,0,0,1,7,1.11,10.41,10.41,0,0,1,4.33,3.16,11.57,11.57,0,0,1,2.22,4.85,30,30,0,0,1,.6,6.25V84h-10V66.16c0-3.06-.42-5.23-1.24-6.5s-2.25-1.92-4.27-1.92a9.4,9.4,0,0,0-2.25.39,9,9,0,0,0-2.38.95,13.53,13.53,0,0,1,.6,3.09c.09,1.09.14,2.25.14,3.48V84h-10Z"/><path class="cls-1" d="M271.52,49.51a24.21,24.21,0,0,1,7.38,1,11.55,11.55,0,0,1,4.73,2.74,9.91,9.91,0,0,1,2.52,4.34,20.09,20.09,0,0,1,.74,5.68V83c-1.43.29-3.42.65-6,1a60.94,60.94,0,0,1-9.27.61,31.08,31.08,0,0,1-6.21-.58,13.81,13.81,0,0,1-4.8-1.88,8.81,8.81,0,0,1-3.09-3.41,11.39,11.39,0,0,1-1.07-5.17,9.39,9.39,0,0,1,1.24-5A9.23,9.23,0,0,1,261,65.4a15.72,15.72,0,0,1,4.77-1.76,28.21,28.21,0,0,1,5.57-.54c1.3,0,2.45.06,3.46.16a15.3,15.3,0,0,1,2.45.42v-.9a5.09,5.09,0,0,0-1.55-3.89c-1-1-2.81-1.47-5.37-1.47a36.43,36.43,0,0,0-5,.35,23.43,23.43,0,0,0-4.3,1l-1.27-7.65c.58-.17,1.31-.36,2.18-.55s1.82-.36,2.85-.51,2.12-.27,3.26-.38S270.35,49.51,271.52,49.51Zm.8,27.82q1.49,0,2.82-.06a20.93,20.93,0,0,0,2.15-.2V69.86c-.4-.08-1-.17-1.81-.25a20.15,20.15,0,0,0-2.22-.13,22.07,22.07,0,0,0-2.65.16,7.16,7.16,0,0,0-2.18.61A3.71,3.71,0,0,0,267,71.46a3.77,3.77,0,0,0,1,5A9.16,9.16,0,0,0,272.32,77.33Z"/><path class="cls-1" d="M317.24,58.83c-.9-.22-1.95-.44-3.16-.67a19.73,19.73,0,0,0-6.14-.2,13.65,13.65,0,0,0-2,.36V84H296V52.19a63.65,63.65,0,0,1,6.35-1.69,38.49,38.49,0,0,1,8.15-.8c.54,0,1.19,0,1.95.1s1.52.15,2.29.25,1.52.24,2.28.38a10.74,10.74,0,0,1,1.95.55Z"/><path class="cls-1" d="M324,42.05l10-1.53V50.4h12v7.92H334v11.8a9,9,0,0,0,1.1,4.78q1.11,1.78,4.47,1.79a20.11,20.11,0,0,0,3.32-.28,18.55,18.55,0,0,0,3.13-.8l1.41,7.4a29.61,29.61,0,0,1-4,1.21,24.7,24.7,0,0,1-5.44.51,18.78,18.78,0,0,1-6.78-1,10.15,10.15,0,0,1-6.55-7.5,25.37,25.37,0,0,1-.64-5.93Z"/><path class="cls-1" d="M147.34,139.31V95.1h31.42v8.35H157.81v8.68h18.6v8.17h-18.6V131H180.3v8.36Z"/><path class="cls-1" d="M187.35,106.9a59.34,59.34,0,0,1,6.58-1.31,57.5,57.5,0,0,1,8.46-.6,21.71,21.71,0,0,1,7.49,1.11,11.3,11.3,0,0,1,4.73,3.16,12.1,12.1,0,0,1,2.49,4.85,24.65,24.65,0,0,1,.73,6.25v19h-10v-17.8c0-3.06-.42-5.23-1.28-6.51s-2.43-1.91-4.76-1.91c-.72,0-1.48,0-2.29.09s-1.52.14-2.14.23v25.9h-10Z"/><path class="cls-1" d="M225.22,122.79a19.66,19.66,0,0,1,1.44-7.82,16.81,16.81,0,0,1,3.8-5.58,15.65,15.65,0,0,1,5.4-3.38,17.63,17.63,0,0,1,6.28-1.15c5,0,9,1.46,11.88,4.37s4.37,7.2,4.37,12.85c0,.56,0,1.16-.07,1.82s-.09,1.25-.13,1.76h-22.7a6.29,6.29,0,0,0,2.89,4.66,12.12,12.12,0,0,0,6.85,1.72,30.29,30.29,0,0,0,5.4-.48,21,21,0,0,0,4.33-1.18l1.35,7.72a14.71,14.71,0,0,1-2.15.76,27.9,27.9,0,0,1-3,.67c-1.1.2-2.27.36-3.52.48a36.56,36.56,0,0,1-3.76.19,23.23,23.23,0,0,1-8.3-1.34,16.25,16.25,0,0,1-5.84-3.66,14.6,14.6,0,0,1-3.42-5.52A20.87,20.87,0,0,1,225.22,122.79Zm23.5-3.64a9.37,9.37,0,0,0-.44-2.36,5.54,5.54,0,0,0-1.14-2,5.9,5.9,0,0,0-1.94-1.47,6.7,6.7,0,0,0-2.92-.57,7,7,0,0,0-2.89.54,6,6,0,0,0-2,1.43,6.5,6.5,0,0,0-1.24,2.08,13.4,13.4,0,0,0-.64,2.39Z"/><path class="cls-1" d="M287.39,114.17c-.89-.21-1.95-.43-3.15-.67a20.87,20.87,0,0,0-3.9-.35,18.45,18.45,0,0,0-2.25.16,14.2,14.2,0,0,0-2,.35v25.65h-10V107.54a60.8,60.8,0,0,1,6.34-1.69,38.52,38.52,0,0,1,8.16-.8c.54,0,1.18,0,1.95.09s1.52.15,2.28.26,1.52.23,2.28.38a11.67,11.67,0,0,1,1.95.54Z"/><path class="cls-1" d="M324.25,135.1q0,8.24-4.39,12.22t-13.6,4a39,39,0,0,1-6.45-.55,42.47,42.47,0,0,1-6-1.43l1.74-8a30,30,0,0,0,4.94,1.41,30.48,30.48,0,0,0,5.87.51c2.87,0,4.89-.6,6.08-1.79a6.25,6.25,0,0,0,1.78-4.59v-1.22a17.1,17.1,0,0,1-3.32,1.06,19,19,0,0,1-3.73.35q-7.32,0-11.21-4.12t-3.9-11.51a18.21,18.21,0,0,1,1.21-6.74,14.38,14.38,0,0,1,3.53-5.2,15.78,15.78,0,0,1,5.67-3.34,22.73,22.73,0,0,1,7.59-1.18c1.2,0,2.45.05,3.72.15s2.54.25,3.8.42,2.45.37,3.59.61,2.16.47,3.05.73ZM302.3,121.45q0,8,6.78,8A10.74,10.74,0,0,0,312,129a11.79,11.79,0,0,0,2.28-.89V113c-.5-.09-1.08-.16-1.75-.22a23,23,0,0,0-2.35-.1,7,7,0,0,0-5.91,2.49A10,10,0,0,0,302.3,121.45Z"/><path class="cls-1" d="M364,105.75q-3,9.7-6.33,18.18t-7.2,16.47a37,37,0,0,1-2.82,4.88,15.76,15.76,0,0,1-3.1,3.32,11.33,11.33,0,0,1-3.8,1.91,18.21,18.21,0,0,1-4.94.6,20.88,20.88,0,0,1-4.33-.41,20.63,20.63,0,0,1-3.27-.92l1.75-7.6a17.09,17.09,0,0,0,2.75.7,16.13,16.13,0,0,0,2.56.19,5.74,5.74,0,0,0,4.13-1.37,11,11,0,0,0,2.45-3.79q-3.42-6.39-6.85-14.33a171.94,171.94,0,0,1-6.45-17.83h10.61q.68,2.49,1.58,5.39c.61,1.94,1.25,3.89,1.93,5.87s1.36,3.9,2.05,5.78,1.36,3.57,2,5.1c.59-1.53,1.19-3.23,1.82-5.1s1.25-3.8,1.86-5.78,1.19-3.93,1.75-5.87,1.07-3.73,1.52-5.39Z"/><path class="cls-2" d="M183.53,158.1q-7.32,0-10.58,3.86c-2.17,2.57-3.25,6.1-3.25,10.56a20.44,20.44,0,0,0,.8,5.9,12.77,12.77,0,0,0,2.42,4.56,10.84,10.84,0,0,0,4,3,14,14,0,0,0,5.64,1.05c1.16,0,2.16,0,3-.06a14.17,14.17,0,0,0,2.18-.26V171.31h10.47v21.88a40.61,40.61,0,0,1-6,1.5,55.93,55.93,0,0,1-10.27.8,28,28,0,0,1-9.5-1.53,20,20,0,0,1-7.29-4.47,19.71,19.71,0,0,1-4.66-7.21,27,27,0,0,1-1.65-9.76,25.11,25.11,0,0,1,1.81-9.82A20.67,20.67,0,0,1,173,151a26.51,26.51,0,0,1,9.1-1.54,38.22,38.22,0,0,1,5.94.42,40.6,40.6,0,0,1,4.57.95,23.58,23.58,0,0,1,3.15,1.12c.83.39,1.42.68,1.78.9l-3,8a28.17,28.17,0,0,0-4.94-1.88A22,22,0,0,0,183.53,158.1Z"/><path class="cls-2" d="M228.58,169.52c-.89-.21-2-.43-3.15-.67a20.87,20.87,0,0,0-3.9-.35,18.45,18.45,0,0,0-2.25.16,14.2,14.2,0,0,0-2,.35v25.65h-10V162.89a60.8,60.8,0,0,1,6.34-1.69,38.52,38.52,0,0,1,8.16-.8c.54,0,1.18,0,1.95.09s1.52.15,2.28.26,1.52.23,2.28.38a11.67,11.67,0,0,1,1.95.54Z"/><path class="cls-2" d="M268,177.82a20.75,20.75,0,0,1-1.21,7.24,15.39,15.39,0,0,1-9,9.22,19.09,19.09,0,0,1-7.15,1.27,18.87,18.87,0,0,1-7.08-1.27,15.59,15.59,0,0,1-5.47-3.61,16.21,16.21,0,0,1-3.56-5.61,19.88,19.88,0,0,1-1.28-7.24,19.2,19.2,0,0,1,1.31-7.21,16.11,16.11,0,0,1,3.63-5.55,16.36,16.36,0,0,1,5.5-3.58,18.56,18.56,0,0,1,6.95-1.27,18.77,18.77,0,0,1,7,1.27,15.71,15.71,0,0,1,9,9.13A19.6,19.6,0,0,1,268,177.82Zm-10.2,0a11.47,11.47,0,0,0-1.85-6.92,6.11,6.11,0,0,0-5.27-2.53,6.21,6.21,0,0,0-5.3,2.53,11.26,11.26,0,0,0-1.88,6.92,11.58,11.58,0,0,0,1.88,7,6.15,6.15,0,0,0,5.3,2.59,6.07,6.07,0,0,0,5.27-2.59A11.79,11.79,0,0,0,257.79,177.82Z"/><path class="cls-2" d="M305.86,193.51a56.67,56.67,0,0,1-6.58,1.31,57.47,57.47,0,0,1-8.46.61,21.21,21.21,0,0,1-7.49-1.15,11.4,11.4,0,0,1-4.73-3.22,12.43,12.43,0,0,1-2.48-4.95,25.41,25.41,0,0,1-.74-6.31V161.1h10v17.55q0,4.59,1.28,6.63t4.77,2q1.06,0,2.28-.09c.8-.07,1.52-.14,2.15-.23V161.1h10Z"/><path class="cls-2" d="M348.09,177.88a23.42,23.42,0,0,1-1,7.08,15.58,15.58,0,0,1-2.95,5.49,13.26,13.26,0,0,1-4.84,3.57,16.28,16.28,0,0,1-6.64,1.28,19.25,19.25,0,0,1-3.9-.38,19.65,19.65,0,0,1-3.49-1.09v12.63h-10V162.25c.89-.26,1.92-.5,3.09-.73s2.38-.44,3.66-.61,2.57-.31,3.89-.42,2.58-.15,3.79-.15a22.7,22.7,0,0,1,7.79,1.24,16.13,16.13,0,0,1,5.78,3.51,15,15,0,0,1,3.59,5.52A20.2,20.2,0,0,1,348.09,177.88Zm-10.2.26a11.06,11.06,0,0,0-2.09-7,7.34,7.34,0,0,0-6.17-2.65q-1.35,0-2.49.09c-.76.07-1.39.14-1.88.23v17.16a9.19,9.19,0,0,0,2.45,1,12.7,12.7,0,0,0,3.06.38Q337.88,187.26,337.89,178.14Z"/><path class="cls-2" d="M36.25,35.75c-13.79,16.73-25.2,71.86,24.41,76.19-5.91-13.19.2-24.81-3.54-42.33S36.25,35.75,36.25,35.75Z"/><path class="cls-2" d="M79.56,35.75c5.09,7.11,8.27,31.11-10.83,40.75C62.63,68.23,63.81,45,79.56,35.75Z"/><path class="cls-2" d="M105,65.67c-14.57,1.19-37.31,17.92-37.31,55.92C103.18,113.71,105,65.67,105,65.67Z"/><path class="cls-3" d="M37,50.12s0,1.46,0,4c.09,1.27.18,2.81.35,4.57s.47,3.74.94,5.87,1,4.43,1.66,6.83,1.55,4.88,2.49,7.43l1.55,3.83q.86,1.92,1.74,3.87c1.23,2.57,2.55,5.15,4,7.68A133.39,133.39,0,0,0,59,108.46a53.63,53.63,0,0,1,4.41,6.66,45.44,45.44,0,0,1,2.93,6.59,44.54,44.54,0,0,1,2.26,10.56c.12,1.3.15,2.34.15,3s0,1.13,0,1.13l-2.35-.19s0-.3,0-1,0-1.62-.09-2.86a42.19,42.19,0,0,0-2-10.06,43.06,43.06,0,0,0-2.67-6.33c-.57-1.08-1.17-2.13-1.88-3.23l-2.26-3.29a134.59,134.59,0,0,1-8.93-14.69C47.23,92.24,46,89.6,44.8,87l-1.64-4L41.71,79.1c-.88-2.59-1.66-5.12-2.29-7.55S38.27,66.8,38,64.64s-.57-4.16-.78-5.92-.17-3.33-.23-4.6C37,51.58,37,50.12,37,50.12Z"/><path class="cls-4" d="M92.36,84s-.84,1.09-2.43,2.89l-2.85,3.25c-1.09,1.26-2.33,2.67-3.6,4.27s-2.63,3.35-3.94,5.28a65.26,65.26,0,0,0-3.82,6.23c-.6,1.12-1.22,2.25-1.72,3.45A37.69,37.69,0,0,0,72.48,113a57,57,0,0,0-2.29,7.67A61.69,61.69,0,0,0,69,128.57c-.09,2.65-.2,5.23-.13,7.82,0,5.13,0,9.92,0,14,0,8.22-.07,13.69-.07,13.69H66.47s0-5.47-.08-13.69c0-4.11,0-8.9,0-14,0-2.55.14-5.26.29-8a66.28,66.28,0,0,1,1.4-8.2,49.34,49.34,0,0,1,2.59-7.9,37.72,37.72,0,0,1,1.7-3.7,38.64,38.64,0,0,1,1.9-3.48,55,55,0,0,1,4.17-6.21c1.43-1.89,2.89-3.6,4.27-5.13,2.76-3.07,5.28-5.41,7-7.09S92.36,84,92.36,84Z"/><path class="cls-1" d="M134.52,60.73c-1.15-15.22-8.15-29.84-19.69-41.17A67.14,67.14,0,0,0,73.55.26C71.42.09,69.29,0,67.23,0,48.57,0,32.31,7.16,18.91,21.28,6.4,34.45-.14,50.27,0,67c.13,15.73,8.39,31.71,14.59,42.35,2.16,3.71,4.6,7.6,7.18,11.71,1.21,1.91,2.42,3.85,3.62,5.79,3.79,6.11,7.25,12.15,8,18.87a38.69,38.69,0,0,1-.12,6.49c-.2,3-.42,6.06.15,8.56s2.1,4.13,3.58,5.63a24,24,0,0,1,1.79,1.94,10.42,10.42,0,0,0,.91,9.14c-1.86,3.35-2.17,8.25,0,11.34a10.45,10.45,0,0,0-.36,10.08c1.86,3.51,5.75,5.61,10.39,5.61h0a17.62,17.62,0,0,0,2.26-.15c0,.49,0,1,0,1.48,0,2.91,0,6.21,3,8.68s9.55,2.59,11.5,2.59c6.61,0,14.31-1.66,16.07-6.32a9.57,9.57,0,0,0,.36-5.32c-.05-.33-.09-.66-.13-1a16.06,16.06,0,0,0,2.27.16c4.82,0,8.91-2.33,10.68-6.09a9.33,9.33,0,0,0-.83-9.24,11.94,11.94,0,0,0,1.65-7.19,8,8,0,0,0-1.51-4.39,11.55,11.55,0,0,0,1.11-8.94,19.34,19.34,0,0,1,2.38-3.14,11.12,11.12,0,0,0,3.08-5.39,29.06,29.06,0,0,0,.18-9.13,29.44,29.44,0,0,1-.15-5.91c.78-7.06,4.64-13.85,7.47-18.34,1.44-2.28,2.85-4.46,4.22-6.57,5.37-8.27,10.45-16.09,14.9-27C131.88,84.36,135.62,75.15,134.52,60.73ZM75,207.85a18.58,18.58,0,0,1-7.2,1.11,27.65,27.65,0,0,1-7.66-1,7.48,7.48,0,0,1,0-3.3A11.48,11.48,0,0,1,64.9,204c1.13,0,2.35.06,3.53.11s2.47.12,3.66.12c.8,0,1.51,0,2.16-.08C74.88,204.47,75.12,205.62,75,207.85Zm13.59-12.56c-2.69,1.18-6.66,1.34-9.89,1.34-1.8,0-3.68,0-5.66-.11s-4.18-.12-6.31-.12c-1.16,0-2.64.07-4.37.16-2.16.1-4.61.23-7,.23-8.59,0-9.15-1.71-9.18-2a.94.94,0,0,1,.26-.81c.61-.66,2.45-1.44,7.76-1.44,1.88,0,3.81.09,5.67.17,1.57.08,3.05.15,4.29.15H76c1.32,0,2.65-.05,3.94-.09s2.38-.08,3.48-.08c3,0,4.74.34,5.21,1A2.07,2.07,0,0,1,88.61,195.29Zm0-10.94a44.28,44.28,0,0,1-10.35.92c-1.82,0-3.69,0-5.67-.08s-4.21-.09-6.39-.09c-1.12,0-2.57.08-4.24.17-2.14.12-4.56.25-6.9.25-6.21,0-8.07-1-8.62-1.59a.91.91,0,0,1-.27-.78c0-.58.92-1.94,8.22-1.94,1.9,0,3.86.08,5.75.16,1.65.07,3.2.14,4.52.14H76c1.36,0,2.7,0,4-.09s2.34-.07,3.4-.07,4.5,0,5.24,1.06A2.48,2.48,0,0,1,88.65,184.35Zm.21-11.58c-.7.84-2,1.19-4.2,1.19-.75,0-1.54,0-2.38-.07s-1.78-.08-2.69-.08H66.75c-1.17,0-2.69.08-4.44.17-2.2.12-4.69.25-7.08.25-6,0-8.07-.87-8.76-1.6a.93.93,0,0,1-.26-.77c.09-1.31,2.87-2.06,7.62-2.06,2,0,4.21.13,6.12.24,1.57.09,3.07.17,4.24.17,2.6,0,5.06,0,7.38,0,2,0,4,0,5.8,0a80.12,80.12,0,0,1,11,.54C88.81,171,88.88,172,88.86,172.77Zm38-102.31c-.83,9-5,20.46-12.13,33.28-2.13,3.84-4.7,7.63-7.19,11.29-6.38,9.39-13,19.1-14.05,31.95a52.48,52.48,0,0,0,0,5.76c.1,3.68.21,7.84-1.4,9.06-.72.54-2.85,1.19-8.94,1.19-2.86,0-5.92-.14-8.89-.26-2.55-.12-5-.22-6.91-.22-1.41,0-3.24.07-5.36.15-2.68.1-5.71.22-8.62.22-8.27,0-10.17-1-10.6-1.45-.89-.9-1.09-5.52-1.23-8.89-.09-2.07-.18-4.2-.39-6.12-1.35-12.12-5.12-17.73-9.49-24.23-1-1.47-2-3-3.06-4.66-2.92-4.64-5.63-9.6-8.16-14.29-4.89-9-11-20.28-12.15-31.77-2.69-26.29,13.87-43.38,19-48A61.11,61.11,0,0,1,67,8.34c1.24,0,2.49.05,3.73.13,15.47,1,29,6.93,39.06,17C114.37,30,129,46.72,126.83,70.46Z"/></svg>